<svg width="130" height="27" viewBox="0 0 130 27" fill="none" xmlns="http://www.w3.org/2000/svg">
<path d="M19.008 21.572V26.036H0.54C0.54 24.884 0.684 23.84 0.972 22.904C1.26 21.968 1.584 21.176 1.944 20.528C2.304 19.88 2.88 19.196 3.672 18.476C4.428 17.756 5.112 17.18 5.688 16.748C6.264 16.316 7.128 15.704 8.28 14.948C8.424 14.84 8.784 14.588 9.432 14.192C10.044 13.76 10.476 13.472 10.728 13.328C10.944 13.148 11.304 12.86 11.808 12.428C12.276 11.996 12.6 11.636 12.816 11.312C13.032 11.024 13.212 10.628 13.428 10.16C13.608 9.692 13.716 9.188 13.716 8.684C13.716 7.604 13.356 6.704 12.708 6.056C12.06 5.408 11.196 5.048 10.116 5.048C7.524 5.048 6.156 6.884 6.012 10.52H1.116V9.98C1.116 7.136 1.944 4.868 3.6 3.176C5.256 1.484 7.488 0.619998 10.296 0.619998C12.816 0.619998 14.904 1.34 16.488 2.78C18.072 4.22 18.864 6.056 18.864 8.324C18.864 10.196 18.432 11.672 17.604 12.752C16.74 13.868 15.444 15.02 13.644 16.244C13.392 16.424 12.96 16.712 12.312 17.144C11.664 17.576 11.124 17.9 10.764 18.188C10.404 18.44 9.936 18.764 9.432 19.16C8.892 19.592 8.424 19.988 8.064 20.384C7.668 20.78 7.344 21.176 7.092 21.572H19.008ZM37.7159 1.016L37.6799 5.372H27.3479L26.3759 10.844C27.5639 9.692 29.1119 9.08 31.0199 9.08C33.4679 9.08 35.4119 9.836 36.8519 11.348C38.3279 12.86 39.0479 14.876 39.0479 17.324C39.0479 19.988 38.1839 22.148 36.3839 23.84C34.6199 25.568 32.3519 26.396 29.5439 26.396C26.9159 26.396 24.7559 25.748 23.0999 24.38C21.4439 23.012 20.5439 21.068 20.3999 18.548H25.4399C25.5479 19.664 25.9799 20.564 26.7359 21.248C27.4919 21.932 28.4279 22.256 29.5799 22.256C30.8399 22.256 31.8839 21.824 32.7119 20.924C33.5039 20.024 33.9359 18.872 33.9359 17.432C33.9359 16.028 33.5399 14.912 32.7479 14.048C31.9559 13.22 30.8759 12.788 29.5439 12.788C27.9239 12.788 26.6639 13.508 25.7639 14.876H21.1919L23.6399 1.016H37.7159ZM59.0158 21.572V26.036H40.5478C40.5478 24.884 40.6918 23.84 40.9798 22.904C41.2678 21.968 41.5918 21.176 41.9518 20.528C42.3118 19.88 42.8878 19.196 43.6798 18.476C44.4358 17.756 45.1198 17.18 45.6958 16.748C46.2718 16.316 47.1358 15.704 48.2878 14.948C48.4318 14.84 48.7918 14.588 49.4398 14.192C50.0518 13.76 50.4838 13.472 50.7358 13.328C50.9518 13.148 51.3118 12.86 51.8158 12.428C52.2838 11.996 52.6078 11.636 52.8238 11.312C53.0398 11.024 53.2198 10.628 53.4358 10.16C53.6158 9.692 53.7238 9.188 53.7238 8.684C53.7238 7.604 53.3638 6.704 52.7158 6.056C52.0678 5.408 51.2038 5.048 50.1238 5.048C47.5318 5.048 46.1638 6.884 46.0198 10.52H41.1238V9.98C41.1238 7.136 41.9518 4.868 43.6078 3.176C45.2638 1.484 47.4958 0.619998 50.3038 0.619998C52.8238 0.619998 54.9118 1.34 56.4958 2.78C58.0798 4.22 58.8718 6.056 58.8718 8.324C58.8718 10.196 58.4398 11.672 57.6118 12.752C56.7478 13.868 55.4518 15.02 53.6518 16.244C53.3998 16.424 52.9678 16.712 52.3198 17.144C51.6718 17.576 51.1318 17.9 50.7718 18.188C50.4118 18.44 49.9438 18.764 49.4398 19.16C48.8998 19.592 48.4318 19.988 48.0718 20.384C47.6758 20.78 47.3518 21.176 47.0998 21.572H59.0158ZM80.0753 0.655998C81.4433 0.655998 82.7033 0.943999 83.7833 1.484C84.8633 1.988 85.7633 2.672 86.4113 3.536C87.0953 4.364 87.6713 5.372 88.1033 6.524C88.5352 7.676 88.8593 8.828 89.0033 9.98C89.1833 11.132 89.2553 12.32 89.2553 13.616C89.2553 17.612 88.4633 20.744 86.8073 23.012C85.1873 25.316 82.9553 26.432 80.0753 26.432C77.1593 26.432 74.8913 25.316 73.2353 23.048C71.5793 20.78 70.7513 17.612 70.7513 13.58C70.7513 11.996 70.9313 10.484 71.2192 9.044C71.5433 7.604 72.0473 6.236 72.7313 4.94C73.3793 3.644 74.3513 2.6 75.6113 1.808C76.8713 1.052 78.3473 0.655998 80.0753 0.655998ZM80.0033 4.904C79.3553 4.904 78.7433 5.048 78.2393 5.336C77.7353 5.624 77.3393 6.02 77.0513 6.596C76.7633 7.172 76.5113 7.712 76.3313 8.216C76.1513 8.72 76.0073 9.404 75.9353 10.232C75.8633 11.06 75.8273 11.708 75.8273 12.14C75.8273 12.572 75.7913 13.148 75.7913 13.868C75.7913 19.484 77.2313 22.328 80.0393 22.328C82.8473 22.328 84.2153 19.412 84.2153 13.616C84.2153 10.592 83.8913 8.396 83.2073 6.992C82.5593 5.588 81.4793 4.904 80.0033 4.904ZM100.079 0.655998C101.447 0.655998 102.707 0.943999 103.787 1.484C104.867 1.988 105.767 2.672 106.415 3.536C107.099 4.364 107.675 5.372 108.107 6.524C108.539 7.676 108.863 8.828 109.007 9.98C109.187 11.132 109.259 12.32 109.259 13.616C109.259 17.612 108.467 20.744 106.811 23.012C105.191 25.316 102.959 26.432 100.079 26.432C97.1632 26.432 94.8952 25.316 93.2392 23.048C91.5832 20.78 90.7552 17.612 90.7552 13.58C90.7552 11.996 90.9352 10.484 91.2232 9.044C91.5472 7.604 92.0512 6.236 92.7352 4.94C93.3832 3.644 94.3552 2.6 95.6152 1.808C96.8752 1.052 98.3512 0.655998 100.079 0.655998ZM100.007 4.904C99.3592 4.904 98.7472 5.048 98.2432 5.336C97.7392 5.624 97.3432 6.02 97.0552 6.596C96.7672 7.172 96.5152 7.712 96.3352 8.216C96.1552 8.72 96.0112 9.404 95.9392 10.232C95.8672 11.06 95.8312 11.708 95.8312 12.14C95.8312 12.572 95.7952 13.148 95.7952 13.868C95.7952 19.484 97.2352 22.328 100.043 22.328C102.851 22.328 104.219 19.412 104.219 13.616C104.219 10.592 103.895 8.396 103.211 6.992C102.563 5.588 101.483 4.904 100.007 4.904ZM120.083 0.655998C121.451 0.655998 122.711 0.943999 123.791 1.484C124.871 1.988 125.771 2.672 126.419 3.536C127.103 4.364 127.679 5.372 128.111 6.524C128.543 7.676 128.867 8.828 129.011 9.98C129.191 11.132 129.263 12.32 129.263 13.616C129.263 17.612 128.471 20.744 126.815 23.012C125.195 25.316 122.963 26.432 120.083 26.432C117.167 26.432 114.899 25.316 113.243 23.048C111.587 20.78 110.759 17.612 110.759 13.58C110.759 11.996 110.939 10.484 111.227 9.044C111.551 7.604 112.055 6.236 112.739 4.94C113.387 3.644 114.359 2.6 115.619 1.808C116.879 1.052 118.355 0.655998 120.083 0.655998ZM120.011 4.904C119.363 4.904 118.751 5.048 118.247 5.336C117.743 5.624 117.347 6.02 117.059 6.596C116.771 7.172 116.519 7.712 116.339 8.216C116.159 8.72 116.015 9.404 115.943 10.232C115.871 11.06 115.835 11.708 115.835 12.14C115.835 12.572 115.799 13.148 115.799 13.868C115.799 19.484 117.239 22.328 120.047 22.328C122.855 22.328 124.223 19.412 124.223 13.616C124.223 10.592 123.899 8.396 123.215 6.992C122.567 5.588 121.487 4.904 120.011 4.904Z" fill="white"/>
</svg>
